<svg width="29" height="26" viewBox="0 0 29 26" fill="none" xmlns="http://www.w3.org/2000/svg">
<path d="M28.2005 0.622368C27.5374 0.011994 26.6082 -0.164154 25.7743 0.159467L1.53937 9.60593C0.637961 9.95822 0.0462852 10.7939 0.00260449 11.7893C-0.0410763 12.7848 0.467209 13.6737 1.33685 14.112L5.12119 16.021C5.19664 16.0579 5.26415 16.1111 5.32372 16.1685C5.71684 17.2131 7.26949 21.3054 7.96044 22.7843C8.30989 23.538 8.95319 24.0665 9.54883 24.2959C9.50913 24.2918 9.46545 24.2836 9.41779 24.2754C9.53295 24.3204 9.65208 24.3573 9.77518 24.3819C10.5614 24.5458 11.3675 24.2959 11.9314 23.7101L13.3411 22.2558C13.5913 21.9977 13.9844 21.9404 14.2942 22.1206L20.3658 25.6764C20.7311 25.8894 21.1361 26 21.5412 26C21.8589 26 22.1805 25.9345 22.4823 25.7993C23.1733 25.492 23.6736 24.8858 23.8563 24.132L28.9272 3.04338C29.1456 2.15855 28.8637 1.22865 28.2005 0.622368ZM6.83269 15.6646L19.8257 7.99601L12.4913 15.7465C12.3722 15.8735 12.2848 16.0169 12.2253 16.1849C12.2213 16.1931 12.2213 16.1971 12.2173 16.2053C12.2014 16.2545 10.752 20.6664 9.89431 22.6614C9.71959 22.5426 9.50913 22.35 9.38602 22.0838C8.75067 20.7074 7.26949 16.8116 6.83269 15.6646Z" fill="#62B642"/>
</svg>
