<svg width="31" height="31" viewBox="0 0 31 31" fill="none" xmlns="http://www.w3.org/2000/svg">
<path d="M2.83884 15.25C2.83884 18.5417 4.14644 21.6985 6.47398 24.026C8.80153 26.3536 11.9584 27.6612 15.25 27.6612C18.5416 27.6612 21.6985 26.3536 24.026 24.026C26.3536 21.6985 27.6612 18.5417 27.6612 15.25C27.6612 11.9584 26.3536 8.80153 24.026 6.47399C21.6985 4.14644 18.5417 2.83884 15.25 2.83884C11.9584 2.83884 8.80153 4.14644 6.47398 6.47398C4.14644 8.80153 2.83884 11.9584 2.83884 15.25ZM15.25 30.25C6.96574 30.25 0.250003 23.5343 0.250004 15.25C0.250005 6.96574 6.96574 0.250005 15.25 0.250006C23.5343 0.250008 30.25 6.96574 30.25 15.25C30.25 23.5343 23.5343 30.25 15.25 30.25Z" fill="#62B642"/>
<path d="M8.56313 18.6155C8.68521 18.7338 8.8294 18.8269 8.98747 18.8895C9.14553 18.952 9.31437 18.9829 9.48435 18.9802C9.65432 18.9775 9.82211 18.9413 9.97811 18.8738C10.1341 18.8063 10.2753 18.7087 10.3936 18.5866L15.3428 13.4744L20.0895 18.5698C20.2055 18.6942 20.3449 18.7945 20.4996 18.8651C20.6544 18.9356 20.8215 18.975 20.9915 18.9809C21.1615 18.9868 21.331 18.9592 21.4903 18.8997C21.6496 18.8401 21.7956 18.7498 21.92 18.6338C22.0444 18.5178 22.1447 18.3784 22.2152 18.2237C22.2858 18.0689 22.3251 17.9018 22.3311 17.7318C22.337 17.5618 22.3094 17.3924 22.2498 17.233C22.1903 17.0737 22.0999 16.9277 21.9839 16.8033L16.3068 10.712C16.187 10.5835 16.0423 10.4807 15.8815 10.4099C15.7207 10.3391 15.5472 10.3018 15.3715 10.3003C15.1959 10.2987 15.0217 10.3329 14.8597 10.4008C14.6977 10.4687 14.5512 10.5689 14.4291 10.6952L8.53267 16.7866C8.41447 16.9088 8.32149 17.053 8.25905 17.2111C8.19661 17.3693 8.16593 17.5381 8.16876 17.7081C8.17159 17.8781 8.20787 18.0458 8.27554 18.2018C8.3432 18.3578 8.44093 18.4988 8.56313 18.617L8.56313 18.6155Z" fill="#62B642"/>
<path d="M15.25 0.500007C7.10381 0.500006 0.500005 7.10381 0.500004 15.25C0.500003 23.3962 7.10381 30 15.25 30C23.3962 30 30 23.3962 30 15.25C30 7.10382 23.3962 0.500008 15.25 0.500007ZM15.25 3.08887C12.0247 3.08887 8.93106 4.36974 6.6504 6.6504C4.36973 8.93106 3.08887 12.0247 3.08887 15.25C3.08887 18.4753 4.36973 21.569 6.65039 23.8496C8.93105 26.1303 12.0247 27.4111 15.25 27.4111C18.4753 27.4111 21.5689 26.1303 23.8496 23.8496C26.1303 21.569 27.4111 18.4754 27.4111 15.25C27.4111 12.0247 26.1303 8.93106 23.8496 6.6504C21.569 4.36974 18.4753 3.08887 15.25 3.08887ZM15.25 2.58887C18.608 2.58887 21.8287 3.92245 24.2031 6.29688C26.5776 8.67131 27.9111 11.8921 27.9111 15.25C27.9111 18.608 26.5776 21.8287 24.2031 24.2031C21.8287 26.5776 18.608 27.9111 15.25 27.9111C11.8921 27.9111 8.67131 26.5776 6.29688 24.2031C3.92245 21.8287 2.58887 18.608 2.58887 15.25C2.58887 11.8921 3.92245 8.67131 6.29688 6.29688C8.67131 3.92245 11.8921 2.58887 15.25 2.58887ZM15.25 6.57354e-06C23.6723 7.678e-06 30.5 6.82767 30.5 15.25C30.5 23.6723 23.6723 30.5 15.25 30.5C6.82767 30.5 3.3181e-06 23.6723 3.90714e-06 15.25C5.0116e-06 6.82767 6.82767 5.98449e-06 15.25 6.57354e-06Z" fill="#62B642"/>
<path d="M7.91867 17.7122C7.91531 17.5094 7.95258 17.3081 8.02707 17.1194C8.10157 16.9308 8.21223 16.7583 8.35324 16.6126L14.2497 10.5218C14.3954 10.371 14.5701 10.2512 14.7634 10.1702C14.9566 10.0893 15.1643 10.0482 15.3737 10.0501C15.5833 10.052 15.7904 10.0966 15.9821 10.181C16.174 10.2654 16.347 10.388 16.49 10.5413L22.1667 16.6331C22.3051 16.7815 22.4131 16.9558 22.4841 17.1458C22.5551 17.3358 22.5879 17.5378 22.5808 17.7405C22.5737 17.9433 22.5272 18.1428 22.4431 18.3274C22.3589 18.5121 22.2389 18.6783 22.0905 18.8167C21.9421 18.9551 21.7679 19.063 21.5778 19.1341C21.3879 19.2051 21.1858 19.2378 20.9831 19.2308C20.7805 19.2237 20.5808 19.1771 20.3962 19.0931C20.2116 19.0089 20.0453 18.8888 19.9069 18.7405L15.3386 13.8382L10.573 18.7601L10.573 18.761C10.432 18.9064 10.2637 19.0223 10.0778 19.1028C9.89171 19.1834 9.69081 19.2266 9.488 19.2298C9.28533 19.2329 9.08371 19.197 8.89523 19.1224C8.86716 19.1112 8.84051 19.097 8.8132 19.0843L8.8132 19.2063L8.38937 18.7972C8.24357 18.6562 8.12733 18.4871 8.0466 18.3011C7.96589 18.115 7.92204 17.915 7.91867 17.7122ZM8.41867 17.7044C8.421 17.8412 8.45021 17.9763 8.50461 18.1019C8.55539 18.2189 8.62738 18.3262 8.71652 18.4173L8.73703 18.4358C8.83553 18.5313 8.95226 18.607 9.0798 18.6575C9.20715 18.7079 9.34327 18.7319 9.48019 18.7298C9.61721 18.7276 9.75285 18.6992 9.87863 18.6448C10.0042 18.5904 10.1183 18.5116 10.2136 18.4134L10.2136 18.4124L15.1628 13.3001L15.3464 13.1116L15.5261 13.304L20.2722 18.3997C20.3658 18.5001 20.4784 18.5811 20.6032 18.638C20.7281 18.6949 20.8635 18.726 21.0007 18.7308C21.1377 18.7355 21.2746 18.7133 21.403 18.6653C21.5314 18.6173 21.6495 18.5449 21.7497 18.4515C21.85 18.3579 21.9311 18.2452 21.988 18.1204C22.0449 17.9955 22.077 17.8601 22.0818 17.7229C22.0865 17.5858 22.0634 17.4491 22.0153 17.3206C21.9673 17.1922 21.895 17.0742 21.8015 16.9739L16.1237 10.8821C16.0272 10.7786 15.9105 10.696 15.781 10.639C15.6514 10.5819 15.5114 10.5514 15.3698 10.5501C15.2282 10.5488 15.0874 10.5765 14.9568 10.6311C14.826 10.6859 14.7076 10.7675 14.6091 10.8694L8.71261 16.9602C8.61726 17.0588 8.54229 17.1755 8.49191 17.303C8.44153 17.4306 8.41639 17.5672 8.41867 17.7044Z" fill="#62B642"/>
</svg>
